<?xml version="1.0" encoding="UTF-8"?><svg id="Layer_2" xmlns="http://www.w3.org/2000/svg" viewBox="0 0 170.64 170.64"><defs><style>.cls-1{fill:none;stroke:#434343;stroke-linejoin:round;stroke-width:7.88px;}.cls-2{fill:#1f2020;}</style></defs><g id="Layer_1-2"><path class="cls-2" d="M48.68,121.95v-21.98h21.98v21.98h-21.98ZM74.33,121.95v-21.98h21.98v21.98h-21.98ZM99.97,121.95v-21.98h21.98v21.98h-21.98ZM48.68,96.31v-21.98h21.98v21.98h-21.98ZM74.33,96.31v-21.98h21.98v21.98h-21.98ZM99.97,96.31v-21.98h21.98v21.98h-21.98ZM48.68,70.67v-21.98h47.63v21.98h-47.63ZM99.97,70.67v-21.98h21.98v21.98h-21.98ZM81.66,107.3h7.33-7.33ZM63.34,88.98v-7.33,7.33ZM107.3,88.98v-7.33,7.33ZM56.01,114.63h7.33v-7.33h-7.33v7.33ZM81.66,114.63h7.33v-7.33h-7.33v7.33ZM107.3,114.63h7.33v-7.33h-7.33v7.33ZM56.01,88.98h7.33v-7.33h-7.33v7.33ZM81.66,88.98h7.33v-7.33h-7.33v7.33ZM107.3,88.98h7.33v-7.33h-7.33v7.33ZM107.3,63.34h7.33v-7.33h-7.33v7.33Z"/><circle class="cls-1" cx="85.32" cy="85.32" r="81.38"/></g></svg>