<?xml version="1.0" encoding="UTF-8"?><svg id="Layer_2" xmlns="http://www.w3.org/2000/svg" viewBox="0 0 170.64 170.64"><defs><style>.cls-1{fill:none;stroke:#434343;stroke-linejoin:round;stroke-width:7.88px;}.cls-2{fill:#1f2020;}</style></defs><g id="Layer_1-2"><circle class="cls-1" cx="85.32" cy="85.32" r="81.38"/><path class="cls-2" d="M98.42,124.63l-26.21-9.17-20.31,7.86c-1.46.58-2.8.42-4.04-.49-1.24-.91-1.86-2.13-1.86-3.66v-61.16c0-.95.27-1.78.82-2.51s1.29-1.27,2.24-1.64l23.15-7.86,26.21,9.17,20.31-7.86c1.46-.58,2.8-.42,4.04.49s1.86,2.13,1.86,3.66v61.16c0,.95-.27,1.78-.82,2.51s-1.29,1.27-2.24,1.64l-23.15,7.86ZM94.06,113.93v-51.11l-17.47-6.12v51.11l17.47,6.12ZM102.79,113.93l13.11-4.37v-51.77l-13.11,5.02v51.11ZM54.74,112.84l13.11-5.02v-51.11l-13.11,4.37v51.77ZM102.79,62.82v51.11-51.11ZM67.85,56.71v51.11-51.11Z"/></g></svg>