<?xml version="1.0" encoding="UTF-8"?><svg id="Layer_2" xmlns="http://www.w3.org/2000/svg" viewBox="0 0 170.64 170.64"><defs><style>.cls-1{fill:#434343;}.cls-2{fill:none;stroke:#434343;stroke-linejoin:round;stroke-width:7.88px;}</style></defs><g id="Layer_1-2"><circle class="cls-2" cx="85.32" cy="85.32" r="81.38"/><path class="cls-1" d="M47.65,104.16c-3.45-3.45-5.18-7.64-5.18-12.56,0-4.92,1.73-9.1,5.18-12.56l25.66-25.66c-1.15-2.51-1.52-5.15-1.1-7.93s1.65-5.18,3.69-7.22c2.62-2.62,5.76-3.92,9.42-3.92s6.8,1.31,9.42,3.92,3.92,5.76,3.92,9.42-1.31,6.8-3.92,9.42c-2.04,2.04-4.45,3.27-7.22,3.69s-5.42.05-7.93-1.1l-25.66,25.66c-1.73,1.73-2.59,3.82-2.59,6.28s.86,4.55,2.59,6.28,3.82,2.59,6.28,2.59,4.55-.86,6.28-2.59l31.39-31.39c3.45-3.45,7.64-5.18,12.56-5.18,4.92,0,9.1,1.73,12.56,5.18s5.18,7.64,5.18,12.56c0,4.92-1.73,9.1-5.18,12.56l-25.66,25.66c1.15,2.51,1.52,5.15,1.1,7.93s-1.65,5.18-3.69,7.22c-2.62,2.62-5.76,3.92-9.42,3.92s-6.8-1.31-9.42-3.92c-2.62-2.62-3.92-5.76-3.92-9.42s1.31-6.8,3.92-9.42c2.04-2.04,4.46-3.28,7.26-3.73s5.43-.07,7.89,1.14l25.66-25.66c1.73-1.73,2.59-3.82,2.59-6.28s-.86-4.55-2.59-6.28-3.82-2.59-6.28-2.59-4.55.86-6.28,2.59l-31.39,31.39c-3.45,3.45-7.64,5.18-12.56,5.18-4.92,0-9.1-1.73-12.56-5.18ZM82.18,50.79c.89.89,1.94,1.33,3.14,1.33s2.25-.44,3.14-1.33,1.33-1.94,1.33-3.14-.44-2.25-1.33-3.14-1.94-1.33-3.14-1.33-2.25.44-3.14,1.33-1.33,1.94-1.33,3.14.44,2.25,1.33,3.14ZM82.18,126.13c.89.89,1.94,1.33,3.14,1.33s2.25-.44,3.14-1.33,1.33-1.94,1.33-3.14-.44-2.25-1.33-3.14-1.94-1.33-3.14-1.33-2.25.44-3.14,1.33-1.33,1.94-1.33,3.14.44,2.25,1.33,3.14Z"/></g></svg>