<?xml version="1.0" encoding="UTF-8"?><svg id="Layer_2" xmlns="http://www.w3.org/2000/svg" viewBox="0 0 170.64 170.64"><defs><style>.cls-1{fill:none;stroke:#434343;stroke-linejoin:round;stroke-width:7.88px;}.cls-2{fill:#1f2020;}</style></defs><g id="Layer_1-2"><circle class="cls-1" cx="85.32" cy="85.32" r="81.38"/><path class="cls-2" d="M144.85,92.76c-2.42,2.42-5.29,3.89-8.6,4.42s-6.43.08-9.35-1.35l-19.26,19.26c-4.09,4.09-9.05,6.14-14.88,6.14-5.83,0-10.79-2.05-14.88-6.14s-6.14-9.05-6.14-14.88c0-5.83,2.05-10.79,6.14-14.88l7.44-7.44c2.05-2.05,3.07-4.53,3.07-7.44s-1.02-5.4-3.07-7.44-4.53-3.07-7.44-3.07-5.4,1.02-7.44,3.07l-19.26,19.26c1.36,2.98,1.8,6.11,1.3,9.4-.5,3.29-1.95,6.14-4.37,8.56-3.1,3.1-6.82,4.65-11.16,4.65-4.34,0-8.06-1.55-11.16-4.65-3.1-3.1-4.65-6.82-4.65-11.16,0-4.34,1.55-8.06,4.65-11.16,2.42-2.42,5.27-3.88,8.56-4.37,3.29-.5,6.42-.06,9.4,1.3l19.26-19.26c4.09-4.09,9.05-6.14,14.88-6.14s10.79,2.05,14.88,6.14c4.09,4.09,6.14,9.05,6.14,14.88,0,5.83-2.05,10.79-6.14,14.88l-7.44,7.44c-2.05,2.05-3.07,4.53-3.07,7.44s1.02,5.4,3.07,7.44,4.53,3.07,7.44,3.07,5.4-1.02,7.44-3.07l19.26-19.26c-1.36-2.98-1.8-6.11-1.3-9.4s1.95-6.14,4.37-8.56c3.1-3.1,6.82-4.65,11.16-4.65s8.06,1.55,11.16,4.65c3.1,3.1,4.65,6.82,4.65,11.16s-1.55,8.06-4.65,11.16ZM40.67,92.76c1.05-1.05,1.58-2.29,1.58-3.72s-.53-2.67-1.58-3.72-2.29-1.58-3.72-1.58-2.67.53-3.72,1.58-1.58,2.29-1.58,3.72.53,2.67,1.58,3.72,2.29,1.58,3.72,1.58,2.67-.53,3.72-1.58Z"/></g></svg>