<?xml version="1.0" encoding="UTF-8"?><svg id="Layer_2" xmlns="http://www.w3.org/2000/svg" viewBox="0 0 170.64 170.64"><defs><style>.cls-1{fill:none;stroke:#434343;stroke-linejoin:round;stroke-width:7.88px;}.cls-2{fill:#1f2020;}</style></defs><g id="Layer_1-2"><circle class="cls-1" cx="85.32" cy="85.32" r="81.38"/><path class="cls-2" d="M70.57,129.58c-5.41,0-10.04-1.93-13.89-5.78-3.85-3.85-5.78-8.48-5.78-13.89v-40.2c-2.87-1.07-5.23-2.85-7.07-5.35s-2.77-5.35-2.77-8.54c0-4.1,1.43-7.58,4.3-10.45s6.35-4.3,10.45-4.3,7.58,1.43,10.45,4.3,4.3,6.35,4.3,10.45c0,3.2-.92,6.04-2.77,8.54s-4.2,4.28-7.07,5.35v40.2c0,2.7.96,5.02,2.89,6.95s4.24,2.89,6.95,2.89,5.02-.96,6.95-2.89,2.89-4.24,2.89-6.95v-49.18c0-5.41,1.93-10.04,5.78-13.89,3.85-3.85,8.48-5.78,13.89-5.78s10.04,1.93,13.89,5.78c3.85,3.85,5.78,8.48,5.78,13.89v40.2c2.87,1.07,5.23,2.85,7.07,5.35s2.77,5.35,2.77,8.54c0,4.1-1.43,7.58-4.3,10.45s-6.35,4.3-10.45,4.3-7.58-1.43-10.45-4.3-4.3-6.35-4.3-10.45c0-3.2.92-6.07,2.77-8.61s4.2-4.3,7.07-5.29v-40.2c0-2.7-.96-5.02-2.89-6.95s-4.24-2.89-6.95-2.89-5.02.96-6.95,2.89-2.89,4.24-2.89,6.95v49.18c0,5.41-1.93,10.04-5.78,13.89s-8.48,5.78-13.89,5.78ZM55.81,60.73c1.39,0,2.56-.47,3.5-1.41s1.41-2.11,1.41-3.5-.47-2.56-1.41-3.5-2.11-1.41-3.5-1.41-2.56.47-3.5,1.41-1.41,2.11-1.41,3.5.47,2.56,1.41,3.5,2.11,1.41,3.5,1.41ZM114.83,119.74c1.39,0,2.56-.47,3.5-1.41s1.41-2.11,1.41-3.5-.47-2.56-1.41-3.5-2.11-1.41-3.5-1.41-2.56.47-3.5,1.41-1.41,2.11-1.41,3.5.47,2.56,1.41,3.5,2.11,1.41,3.5,1.41Z"/></g></svg>