<?xml version="1.0" encoding="UTF-8"?><svg id="Layer_2" xmlns="http://www.w3.org/2000/svg" viewBox="0 0 170.64 170.64"><defs><style>.cls-1{fill:#434343;}.cls-2{fill:none;stroke:#434343;stroke-linejoin:round;stroke-width:7.88px;}</style></defs><g id="Layer_1-2"><path class="cls-1" d="M85.32,136.34c-3.87,0-7.15-1.35-9.86-4.06-2.71-2.71-4.06-5.99-4.06-9.86,0-1.08.1-2.11.29-3.07s.52-1.91.99-2.84l-18.55-18.67c-.93.39-1.89.72-2.9.99s-2.05.41-3.13.41c-3.87,0-7.13-1.35-9.8-4.06s-4-5.99-4-9.86,1.33-7.15,4-9.86,5.93-4.06,9.8-4.06c3.01,0,5.72.87,8.12,2.61s4.06,3.96,4.99,6.67h11.02c.7-2.01,1.78-3.73,3.25-5.16s3.21-2.49,5.22-3.19v-11.02c-2.71-.93-4.93-2.59-6.67-4.99s-2.61-5.1-2.61-8.12c0-3.87,1.35-7.15,4.06-9.86s5.99-4.06,9.86-4.06,7.15,1.35,9.86,4.06,4.06,5.99,4.06,9.86c0,1.08-.12,2.13-.35,3.13s-.58,1.97-1.04,2.9l18.55,18.55c.93-.46,1.89-.81,2.9-1.04s2.05-.35,3.13-.35c3.87,0,7.15,1.35,9.86,4.06s4.06,5.99,4.06,9.86-1.35,7.15-4.06,9.86-5.99,4.06-9.86,4.06c-3.01,0-5.72-.87-8.12-2.61s-4.06-3.96-4.99-6.67h-11.02c-.7,2.01-1.76,3.75-3.19,5.22s-3.15,2.55-5.16,3.25v10.9c2.71.93,4.93,2.59,6.67,4.99s2.61,5.1,2.61,8.12c0,3.87-1.35,7.15-4.06,9.86-2.71,2.71-5.99,4.06-9.86,4.06ZM80.68,109.32v-10.9c-1-.39-1.93-.85-2.78-1.39s-1.64-1.18-2.38-1.91-1.37-1.53-1.91-2.38-1-1.78-1.39-2.78h-11.02c0,.08-.02.17-.06.29l-.12.35c-.04.12-.08.21-.12.29l-.17.35,3.36,3.36c1.86,1.86,3.83,3.85,5.91,5.97s4.06,4.12,5.91,5.97l3.36,3.36c.15-.08.29-.14.41-.17s.23-.1.35-.17.23-.14.35-.17.21-.06.29-.06ZM98.31,80.68h11.02c0-.15.02-.29.06-.41s.1-.23.17-.35.14-.23.17-.35.1-.21.17-.29l-3.36-3.36-5.91-5.91-5.91-5.91-3.36-3.36c-.08.08-.17.14-.29.17s-.23.1-.35.17-.23.14-.35.17-.25.06-.41.06v11.02c.93.31,1.84.75,2.72,1.33s1.68,1.22,2.38,1.91,1.33,1.49,1.91,2.38,1.02,1.8,1.33,2.72ZM122.43,89.96c1.31,0,2.42-.44,3.3-1.33s1.33-1.99,1.33-3.3-.44-2.42-1.33-3.3c-.89-.89-1.99-1.33-3.3-1.33s-2.42.44-3.3,1.33c-.89.89-1.33,1.99-1.33,3.3s.44,2.42,1.33,3.3,1.99,1.33,3.3,1.33ZM85.32,89.96c1.31,0,2.42-.44,3.3-1.33.89-.89,1.33-1.99,1.33-3.3s-.44-2.42-1.33-3.3c-.89-.89-1.99-1.33-3.3-1.33s-2.42.44-3.3,1.33c-.89.89-1.33,1.99-1.33,3.3s.44,2.42,1.33,3.3,1.99,1.33,3.3,1.33ZM85.32,127.06c1.31,0,2.42-.44,3.3-1.33.89-.89,1.33-1.99,1.33-3.3s-.44-2.42-1.33-3.3c-.89-.89-1.99-1.33-3.3-1.33s-2.42.44-3.3,1.33-1.33,1.99-1.33,3.3.44,2.42,1.33,3.3c.89.89,1.99,1.33,3.3,1.33ZM48.21,89.96c1.31,0,2.42-.44,3.3-1.33s1.33-1.99,1.33-3.3-.44-2.42-1.33-3.3c-.89-.89-1.99-1.33-3.3-1.33s-2.42.44-3.3,1.33c-.89.89-1.33,1.99-1.33,3.3s.44,2.42,1.33,3.3c.89.89,1.99,1.33,3.3,1.33ZM85.32,52.85c1.31,0,2.42-.44,3.3-1.33.89-.89,1.33-1.99,1.33-3.3s-.44-2.42-1.33-3.3c-.89-.89-1.99-1.33-3.3-1.33s-2.42.44-3.3,1.33-1.33,1.99-1.33,3.3.44,2.42,1.33,3.3,1.99,1.33,3.3,1.33Z"/><circle class="cls-2" cx="85.32" cy="85.32" r="81.38"/></g></svg>