<?xml version="1.0" encoding="UTF-8"?><svg id="Layer_2" xmlns="http://www.w3.org/2000/svg" viewBox="0 0 170.64 170.64"><defs><style>.cls-1{fill:none;stroke:#434343;stroke-linejoin:round;stroke-width:7.88px;}.cls-2{fill:#1f2020;}</style></defs><g id="Layer_1-2"><path class="cls-2" d="M85.32,138.47c-4.03,0-7.45-1.41-10.27-4.23-2.82-2.82-4.23-6.24-4.23-10.27,0-1.13.1-2.19.3-3.2s.54-1.99,1.03-2.96l-19.33-19.45c-.97.4-1.97.74-3.02,1.03s-2.13.42-3.26.42c-4.03,0-7.43-1.41-10.21-4.23s-4.17-6.24-4.17-10.27,1.39-7.45,4.17-10.27,6.18-4.23,10.21-4.23c3.14,0,5.96.91,8.46,2.72s4.23,4.13,5.19,6.95h11.47c.72-2.09,1.85-3.89,3.38-5.38s3.34-2.6,5.44-3.32v-11.47c-2.82-.97-5.13-2.7-6.95-5.19s-2.72-5.31-2.72-8.46c0-4.03,1.41-7.45,4.23-10.27s6.24-4.23,10.27-4.23,7.45,1.41,10.27,4.23,4.23,6.24,4.23,10.27c0,1.13-.12,2.21-.36,3.26s-.6,2.05-1.09,3.02l19.33,19.33c.97-.48,1.97-.85,3.02-1.09s2.13-.36,3.26-.36c4.03,0,7.45,1.41,10.27,4.23s4.23,6.24,4.23,10.27-1.41,7.45-4.23,10.27-6.24,4.23-10.27,4.23c-3.14,0-5.96-.91-8.46-2.72s-4.23-4.13-5.19-6.95h-11.47c-.72,2.09-1.83,3.91-3.32,5.44s-3.28,2.66-5.38,3.38v11.35c2.82.97,5.13,2.7,6.95,5.19s2.72,5.31,2.72,8.46c0,4.03-1.41,7.45-4.23,10.27-2.82,2.82-6.24,4.23-10.27,4.23ZM80.49,110.32v-11.35c-1.05-.4-2.01-.89-2.9-1.45s-1.71-1.23-2.48-1.99-1.43-1.59-1.99-2.48-1.05-1.85-1.45-2.9h-11.47c0,.08-.02.18-.06.3l-.12.36c-.04.12-.08.22-.12.3l-.18.36,3.5,3.5c1.93,1.93,3.99,4.01,6.16,6.22s4.23,4.29,6.16,6.22l3.5,3.5c.16-.08.3-.14.42-.18s.24-.1.36-.18.24-.14.36-.18.22-.06.3-.06ZM98.85,80.49h11.47c0-.16.02-.3.06-.42s.1-.24.18-.36.14-.24.18-.36.1-.22.18-.3l-3.5-3.5-6.16-6.16-6.16-6.16-3.5-3.5c-.08.08-.18.14-.3.18s-.24.1-.36.18-.24.14-.36.18-.26.06-.42.06v11.47c.97.32,1.91.79,2.84,1.39s1.75,1.27,2.48,1.99,1.39,1.55,1.99,2.48,1.07,1.87,1.39,2.84ZM123.97,90.15c1.37,0,2.52-.46,3.44-1.39s1.39-2.07,1.39-3.44-.46-2.52-1.39-3.44c-.93-.93-2.07-1.39-3.44-1.39s-2.52.46-3.44,1.39c-.93.93-1.39,2.07-1.39,3.44s.46,2.52,1.39,3.44,2.07,1.39,3.44,1.39ZM85.32,90.15c1.37,0,2.52-.46,3.44-1.39.93-.93,1.39-2.07,1.39-3.44s-.46-2.52-1.39-3.44c-.93-.93-2.07-1.39-3.44-1.39s-2.52.46-3.44,1.39c-.93.93-1.39,2.07-1.39,3.44s.46,2.52,1.39,3.44,2.07,1.39,3.44,1.39ZM85.32,128.8c1.37,0,2.52-.46,3.44-1.39.93-.93,1.39-2.07,1.39-3.44s-.46-2.52-1.39-3.44c-.93-.93-2.07-1.39-3.44-1.39s-2.52.46-3.44,1.39-1.39,2.07-1.39,3.44.46,2.52,1.39,3.44c.93.93,2.07,1.39,3.44,1.39ZM46.67,90.15c1.37,0,2.52-.46,3.44-1.39s1.39-2.07,1.39-3.44-.46-2.52-1.39-3.44c-.93-.93-2.07-1.39-3.44-1.39s-2.52.46-3.44,1.39c-.93.93-1.39,2.07-1.39,3.44s.46,2.52,1.39,3.44c.93.93,2.07,1.39,3.44,1.39ZM85.32,51.5c1.37,0,2.52-.46,3.44-1.39.93-.93,1.39-2.07,1.39-3.44s-.46-2.52-1.39-3.44c-.93-.93-2.07-1.39-3.44-1.39s-2.52.46-3.44,1.39-1.39,2.07-1.39,3.44.46,2.52,1.39,3.44,2.07,1.39,3.44,1.39Z"/><circle class="cls-1" cx="85.32" cy="85.32" r="81.38"/></g></svg>