<?xml version="1.0" encoding="UTF-8"?>
<svg id="Layer_2" data-name="Layer 2" xmlns="http://www.w3.org/2000/svg" width="703.66644" height="95.994716" viewBox="0 0 703.66644 95.994716">
  <g id="Layer_1-2" data-name="Layer 1">
    <g>
      <path d="M5.35614,94.282314l-1.235694.207182-1.119205-.524381-1.021483-.467844-.890259-.727084-.438274-1.043339-.231732-1.067294-.419494-1.167272.333337-1.191509.348294-1.265897.081844-1.310236.25494-1.281172-.053407-1.333402.475687-1.244667.231724-1.286381.110806-1.307535.07755-1.314096.343524-1.269111.299784-1.275688.252687-1.283033.17814-1.295212-.026182-1.329479.564032-1.23007.24935-1.283393.109118-1.307558.183533-1.2958.198468-1.294327.141863-1.303154.367555-1.264407.056288-1.316449.408527-1.256983-.031722-1.331396.44472-1.25166.220436-1.290368.114068-1.308453.239029-1.284982.088751-1.308816.125026-1.301646.483765-1.240591-.071783-1.3341.283133-1.274682.310303-1.271037.279434-1.277744.180973-1.296447.276379-1.282811.182979-1.296323.162569-1.298275.071391-1.312945.478288-1.244525-.02977-1.331209.252209-1.285733.526284-1.24096.147119-1.302837.166822-1.298762.261336-1.283463-.057355-1.339315.578121-1.23197.151131-1.30276-.036888-1.335362.411389-1.261329.410793-1.259953-.009482-1.332334.03202-1.324595.180719-1.300048.286604-1.279266.606049-1.225464.076823-1.319045.085299-1.315418.192284-1.299173.273013-1.28707.419743-1.260443.058736-1.324398.230452-1.29761.276147-1.288342.698377-1.718613.93719-1.498442,1.541592-.805296,1.832149.026914,1.285611-.098503,1.287075-.325123,1.285647.407015,1.28715.00663,1.28643-.252838,1.286925.130978,1.284083.082367L29.811145.001266l1.288364.020178,1.286238.254262,1.287964-.054508,1.289417.097482,1.28758-.184106,1.290593.309964,1.292674-.189082,1.292674.081878,1.75844.379861,1.656386.45698,1.072861,1.407624.656787,1.81796.266401,1.279053.115547,1.304328.352178,1.264371.336935,1.267218.129307,1.302802.270046,1.279574-.005024,1.326922.316446,1.27345.399913,1.259157-.136561,1.349193.236752,1.285395.201834,1.290924.286874,1.276359.465741,1.246133.194689,1.292315.193103,1.293115-.109391,1.345113.359044,1.266847.110629,1.308194.379428,1.261972.000688,1.325681.475627,1.245165-.047591,1.33397.437241,1.25244.184683,1.296111.219891,1.290309.338027,1.267896.323062,1.268938.205263,1.287826.056767,1.312369.140908,1.298008.283358,1.274285.078138,1.309965.378442,1.260625.021331,1.323197.349653,1.27005.086113,1.312442.510712,1.239067.194489,1.29191-.042964,1.332265.244788,1.28461.388218,1.26237.301285,1.278504.202399,1.293224.085996,1.312178.400903,1.259491-.103422,1.347022.516728,1.241774.086133,1.313509.067311,1.317611.459746,1.252682.184872,1.297744.046515,1.322723.342676,1.271835.01406,1.327985.218639,1.290411.400309,1.259686.454591,1.254887-.170443,1.358513.18901,1.299438.356628,1.272561.1181,1.311047.375475,1.270587.409323,1.267007.239214,1.293872-.203209,1.245993.059963,1.215166-.23859,1.112945-.714077.887287-.810892.775359-1.041262.401877-1.066014.621629-1.22811-.074168-1.314088.269766-1.311187-.321081-1.31122-.100143-1.315558.266458-1.313386.091255-1.315149-.230546-1.316632.31868-1.314757-.383198-1.317834.38117-1.319958-.241045-1.319958.027542-1.16724-.0644-.96602-.663017-1.144528-.358871-.602519-1.021647-.433372-1.052763-.301942-1.107604-.077093-1.286424-.348504-1.267865.011798-1.291797.000196-1.292539.13793-1.299185-.294052-1.275587-.06051-1.292063-.173958-1.281444-.616952-1.089084-1.152687-.400028-1.285747-.405778-1.283915.289858-1.28692-.150351-1.288994-.005264-1.288994.260446-1.198168.360832-.934033,1.044433.01746,1.319552.013509,1.311069.016467,1.31304-.216109,1.297701-.08003,1.305671-.106244,1.306845-.069702,1.311607-.110077,1.308614-.401582,1.065571-.174201,1.186395-.774773.90357-1.145616.361253-.963425.724426-1.184022-.158167-1.360984.319988-1.361018-.22882-1.365521.063123-1.363267-.247732-1.365096.370311-1.366637-.207462-1.364689.21428-1.367884-.398874-1.361672.087624-1.378506-.088056ZM30.550476,59.64413l.679284-.450961.63443-.253874.212997-.635455-.047078-.691501.088562-1.328841.04716-1.326702-.381048-1.297614.103564-1.33077.038555-1.327671-.230817-1.307683-.05578-1.3207-.367516-1.295501.1676-1.333769-.079584-1.32048-.201868-1.309554-.235792-1.308907.033167-1.32962-.010811-1.324587-.058573-1.324276-.134068-1.321024-.340441-1.302829.005263-1.057818-.622087-.413366-.546982.476687-.309157,1.033071-.087161,1.311184-.030043,1.315711-.258404,1.298647.056264,1.322765-.29991,1.295349.145175,1.330796-.336344,1.292156-.10926,1.307705-.001723,1.316481-.12878,1.310507.023044,1.32067-.013939,1.319433-.37676,1.291425.184902,1.335205-.174019,1.309115-.2015,1.309014-.170042,1.311487.080577.73207.265995.631816.568829.383826.758596.095215,1.715524.263171Z" fill="#885263"/>
      <path d="M60.6063,5.005458l.115012-1.31324.692348-1.122897.461992-1.236071,1.187139-.551749,1.2179-.288295,1.250255-.116581,1.282282-.242526,1.282776-.070875,1.279944.012167,1.279976.364199,1.284211-.14037,1.282091-.083071,1.283812-.033669,1.28526-.010758,1.283429.194475,1.286433.052624,1.288507-.016583,1.288507-.350809,1.292054.248513,1.183357.492929.963756.773418.917697.898715.341602,1.249997-.093019,1.290455.178497,1.320248-.140427,1.320355.206758,1.32062-.232804,1.321049.180467,1.321648-.034805,1.322422.150121,1.323375-.044542,1.323214-.082194,1.322422-.101006,1.321832-.025341,1.321449-.056996,1.321283.060448,1.32134-.051776,1.32163.153271,1.322161-.131697,1.322941-.009837,1.323983.116294,1.323273-.202084,1.322563.189154,1.322149.154033,1.322045-.085516,1.322263-.002229,1.322819-.036833,1.323727-.048338,1.323885.064576,1.323072.070142,1.319951-.280739,1.318897.287398,1.318301-.073119,1.318186.095986,1.31858-.092635,1.319511.12488,1.321011.020207,1.323115.020394,1.32555.051517,1.323328-.055084,1.321845-.321887,1.321151.207462,1.321303-.039234,1.322363.030447,1.324402.150696,1.325814-.144109,1.323797.111965,1.323045-.118121,1.323672-.102947,1.325811.050107,1.325561.202558,1.324395-.118121,1.325308-.081734,1.326817-.158376,1.325345.05609,1.326894.20263,1.326152-.25058,1.326662.146971,1.323733-.006213,1.323767-.040342,1.328146.075377,1.325954.086811,1.327733-.329049,1.329231.088033,1.327337.12931,1.330444.081144,1.332589.031727,1.332589-.35386,1.2552-.20036,1.264032-.665142,1.127266-1.157857.621305-1.202747.49193-1.302237.224455-1.282282-.186249-1.282776-.072687-1.279944.144886-1.279976.135897-1.284211-.032173-1.282091.005552-1.283812-.372037-1.28526.271966-1.283429-.176095-1.286433.259555-1.288507-.243605-1.288507.035351-1.269531-.157481-1.246866-.287743-1.053877-.738567-.767111-1.042373-.457076-1.224762.209019-1.303621-.413774-1.320248.169494-1.320355.254204-1.32062-.365062-1.321049.349846-1.321648-.058046-1.322422-.131769-1.323375.19692-1.323214-.177087-1.322422-.134603-1.321832.037207-1.321449.008198-1.321283-.128965-1.32134.352449-1.32163-.052854-1.322161.060721-1.322941-.251457-1.323983.020696-1.323273-.002618-1.322563.240513-1.322149-.194777-1.322045-.012139-1.322263-.01362-1.322819-.108729-1.323727.116107-1.323885.011563-1.323072.026204-1.319951-.204687-1.318897-.016309-1.318301.199768-1.318186.237881-1.31858-.024076-1.319511.021084-1.321011-.132114-1.323115-.005782-1.32555-.022781-1.323328.041809-1.321845-.272268-1.321151.303061-1.321303-.204025-1.322363.119314-1.324402-.072716-1.325814.200214-1.323797-.361107-1.323045.398587-1.323672-.344985-1.325811.171076-1.325561-.022019-1.324395-.045951-1.325308.253255-1.326817-.300342-1.325345.078052-1.326894.172571-1.326152-.354203-1.326662.078929-1.323733.239276-1.323767-.239937-1.328146.289182-1.325954.052797-1.327733-.198229-1.329231.04644-1.327337.073191-1.330444-.335046-1.321485.042269-1.343692Z" fill="#885263"/>
      <path d="M121.131943,95.411221l-1.208601.020874-1.089057-.538587-1.21251-.080821-1.051338-.365269-.943601-.598549-1.047131-.390831-1.194225-1.092913-1.208683-1.027283-.656601-.101049-.479453-.067612-.352588.283362-.378734.351096-.185043.590964-.951258,1.460741-1.621667.768602-1.329991-.342973-1.330503.197578-1.327565.168345-1.327599-.354448-1.331991.374044-1.329793-.049661-1.331577-.216285-1.333079.112429-1.33118.124676-1.334296-.128205-1.336447-.127724-1.336447.022833-1.293733.026441-.789721-.883587-.500245-.958632-.325655-1.12531-.307645-1.314018.399458-1.313677-.025953-1.313481-.215804-1.313433-.017321-1.313539.065101-1.313803-.113902-1.31423-.087132-1.314825-.043377-1.315595.473671-1.316544-.264968-1.316384.224727-1.315596-.014843-1.315008-.327839-1.314628.162964-1.314462-.121323-1.314519.192621-1.314807-.180534-1.315335.266135-1.316112-.266514-1.317148-.087934-1.316442.246787-1.315735-.238068-1.315324.023401-1.31522.309541-1.315437.0622-1.31599-.064693-1.316894-.275043-1.317051.203731-1.316242.087278-1.313137-.397737-1.312089.301769-1.311495-.048159-1.311381.124093-1.311773.005322-1.312699-.206633-1.314192.083764-1.316285-.026522-1.318707.067828-1.316497.001546-1.315021-.000379-1.314331-.274504-1.314482.221913-1.315537-.159903-1.317565.13481-1.31897.098432-1.316963.059065-1.316215-.009492-1.316839.008209-1.318967-.219536-1.318718-.103827-1.317558.051425-1.318466.334969-1.319968-.371915-1.318503.105853-1.320044-.053029-1.319306.186322-1.319814-.313098-1.3169.181511-1.316933.159378-1.32129-.233183-1.319109.321788-1.320879-.013749-1.322369-.348864-1.320485.26892-1.323576.111131-1.32571-.099496-1.32571.122277-1.200737.550398-1.023688.929519-.744795,1.294418.165711,1.348488-.44002,1.350064.062098,1.349309.277945,1.349828-.267024,1.346848.171275,1.346882.047401,1.351338-.130713,1.349108.139753,1.350918-.290134,1.352442.226914,1.350515-.20029,1.353676-.04603,1.355858.172208,1.355858.085135,1.207332.24081.866854.679508.760756.85001.271846,1.224664-.266252,1.358461.155937,1.357701.019888,1.358223.222015,1.355225-.409664,1.355259.004782,1.359743.403584,1.357498-.155164,1.35932.092527,1.360854-.205029,1.358915-.064445,1.362095-.113304,1.364291.389455,1.364291.299834,1.633454.651069,1.354718,1.440846.207338,1.587142-.286523,1.603842-.057666,1.653535-.764337,1.963157-.09173,1.066937.12777,1.05252-.124011,1.299135-.086126,1.300685-.023037,1.265076.405811,1.300153.000737,1.216625.462955,1.20221.163392,1.073425.569505,1.262613.119296,1.029849.659837,1.007117.888054.955556.917371.933259.958959.592854,1.160259.345571,1.254486.837233,1.079763.001479,1.430643.524661,1.318445.013427,1.401248.256879,1.489175-.035847,1.508335-.06689,1.504985.024539,1.323702-.239744,1.322218-.00121,1.321524.44107,1.321676-.322021,1.322737.230194,1.324776-.039936,1.326188-.108798,1.324171.015616,1.323419-.201194,1.324046.158357,1.326185.21299,1.325936-.098869,1.324769-.052125,1.325682.108434,1.327192-.115287,1.32572.116686,1.327269-.186468,1.326527.010323,1.327037-.057432,1.324107.141531,1.324141.150979,1.328522-.316568,1.326329.194618,1.328109-.176014,1.329607.322911,1.327713-.382923,1.33082.134183,1.332966.153808,1.332966-.060035,1.515793-.276686,1.500942-.139634,1.499908.059022,1.394685-.043807,1.403602-.404054,1.337212-.497724,1.210934-.755333,1.072355-.697456,1.070752-.799665,1.027275-.791046,1.090996-1.141605.698538-.959382.77463-1.141446.423434-1.259265.04036-1.148364.338965-1.189574.628737-1.306291.035793-1.293772.002732-1.293345.020117-1.293262.168541-1.304587.173874-1.270944-.410785-1.274643-.17271ZM115.521955,78.315331l.360169-.406395.512543-.261104-.159765-.744914-.032281-1.296547.153458-1.296696-.154537-1.297736.243448-1.299737-.011373-1.301123-.264371-1.299144.041131-1.298405-.091842-1.299021.183975-1.30112.066224-1.300875.062841-1.29973-.228591-1.300626.342973-1.302108-.197578-1.300663-.168345-1.302183.354448-1.301454-.374044-1.301955.049661-1.299081.216285-1.299114-.112429-1.303412-.124676-1.30126.128205-1.303006.127724-1.304477-.022833-1.302618-.26666-1.305667.315941-1.307772.096916-1.307772-.228046-.705013-.516368-.23139-.283449-.560576-.618164-.039408-.564822.275426-.425555.216609-.331472.37653.00684.667823.087132,1.296547.043377,1.296696-.473671,1.297736.264968,1.299737-.224727,1.301123.014843,1.299144.327839,1.298405-.162964,1.299021.121323,1.30112-.192621,1.300875.180534,1.29973-.266135,1.300626.266514,1.302108.087934,1.300663-.246787,1.302183.238068,1.301454-.023401,1.301955-.309541,1.299081-.0622,1.299114.064693,1.303412.275043,1.30126-.203731,1.303006-.087278,1.304477.397737,1.302618-.301769,1.305667.048159,1.307772-.124093,1.307772.113364.741296.465197.311222.415648.283692.581555.034938.599409.041264Z" fill="#885263"/>
      <path d="M160.589542,95.256174l-1.18093-.341462-1.223039-.091462-1.139392-.471743-1.245976-.050119-1.176209-.325686-1.131145-.458497-1.321515-.527208-1.101965-.930883-1.319258-.561962-1.042159-.965546-.898694-.886704-.581932-1.137189-.795631-.968023-.49075-1.151464-.747367-1.14279-.344594-1.304379-.411862-1.290484-.282076-1.327037.066439-1.270154-.116977-1.243941-.010314-1.249124-.311706-1.243091.156923-1.257078.049809-1.307024-.083134-1.308417-.087683-1.306427.118817-1.305685-.138004-1.306304.222996-1.308414-.033658-1.308168.024916-1.307017.054514-1.307918-.048374-1.309408-.106181-1.307955-.122543-1.309484.278222-1.308751-.24998-1.309255.046317-1.306364-.024504-1.306397-.016762-1.310719-.052879-1.308556.246577-1.310312-.152486-1.31179-.046884-1.309921.036929-1.312987.242094-1.315104-.139606-1.315104.10913-1.25025-.263826-1.262735.342152-1.235201-.150417-1.270421.425533-1.206849.120149-1.342228.413545-1.283384.255608-1.329579.553423-1.230442.754819-1.021256.521953-1.157592.935156-.859924.641994-1.131869,1.254293-.708742,1.053225-.967008,1.354492-.46597,1.243561-.674197,1.185947-.281026,1.15698-.354209,1.148712-.407017,1.164769-.363471,1.219784-.117998,1.174992-.395382,1.402459-.005168,1.371638-.266459,1.403693.0767,1.380459-.288237,1.394534-.034908,1.39801-.075115,1.400198.338733,1.370423-.216947,1.372993.009504,1.371452.060149,1.360189.194243,1.375642-.00653,1.337978.340455,1.372379.013977,1.41886.297356,1.413195.2884,1.467599.090047,1.349866.537721,1.401501.366046,1.264615.595515,1.153923.790746,1.162468.736935,1.188254.723863.93428.790635.805214.924509.741482.979121.565728,1.08998.370542,1.218967.381674,1.193481.412068,1.190494.235637,1.238204.312006,1.403262-.055529,1.440691.30208,1.421056-.218277,1.439404-.014549,1.334507.280602,1.333027-.094891,1.334584-.046728,1.333838-.078418,1.334351.24126,1.331405-.131308,1.331439.012669,1.335844-.009833,1.333639.01971,1.335429.034437,1.336935-.16243,1.33503.162008,1.338155.041723,1.340312-.113789,1.340312-.319179,1.201363-.556994.999723-.98402.57716-1.217066.344554-1.310877-.215132-1.309724-.063991-1.310626.286453-1.312119-.172386-1.310663.226566-1.312195-.232105-1.311461.231928-1.311966-.058697-1.309069-.272026-1.309102.328709-1.313433-.05695-1.311265-.070265-1.313025.049932-1.314506.097972-1.312633-.051244-1.315706-.06517-1.317827.116359-1.317827-.215365-.753405.307059-.203326.783678.036172,1.346961-.21393,1.344738.015895,1.346542.064848,1.348061-.094235,1.346141.230003,1.349292-.154622,1.351467.102588,1.351467.015231.663431.355747.352126.356325.425873.635287-.262944.555688.091976.502349-.140409.162399-.506828-.002657-.623226.181951-1.555664-.106036-1.555664.206476-1.071944.535999-.970988,1.056623-.309108.986309-.31345,1.300249-.119907,1.298806-.066405,1.300324.284384,1.299597-.240003,1.300097-.024493,1.297227.152998,1.297259-.072044,1.301551.200605,1.299403.035816,1.301147-.243807,1.302615.031367,1.300759-.045961,1.303803.102221,1.305905.004227,1.305905-.14093.99928.420807,1.031383.355951.558028.954987.180201,1.075675-.120741,1.223389-.019299,1.223389.06493,1.441785-.042288,1.444777-.316365,1.414272.041615,1.456809-.440755,1.196185-.336904,1.206175-.251817,1.244718-.515831,1.154842-.646512,1.034711-.700121.995289-.716322.998025-.991885.729709-1.0084.98205-1.228613.681262-1.295217.52877-1.263186.585504-1.176152.266935-1.127518.41271-1.144862.380011-1.188914.190992-1.176329.278891-1.175927.324108-1.360175.162423-1.386335-.131578-1.358263.176468-1.361155.217789-1.373143-.072345-1.371796.086083-1.374359.104389-1.391352-.32026-1.40105.23841-1.399191.003485-1.393589-.081626-1.368535-.406515-1.388114-.0642-1.393517-.054675ZM170.688172,54.244355l.805779-.159192.178504-.805779.213597-1.297574-.268433-1.301867-.03853-1.299718.038586-1.301462-.053725-1.302931.295162-1.301074-.264641-1.30412.072044-1.306222-.02922-1.306222.138832-.729392-.426887-.390639-.432017-.318181-.592331.186558-.581192-.014614-.363311.276785-.203665.389541-.317277.599942.002024,1.297574-.06794,1.301867.26691,1.299718-.171362,1.301462-.049809,1.302931.083134,1.301074.087683,1.30412-.118817,1.306222.138004,1.306222.092329.810711.814597.282529.751973-.128268Z" fill="#885263"/>
      <path d="M221.540215,32.813097l.351538.741406.709372.165841.670564-.127323.472128-.519741.658272-1.175514.656215-1.179107.83196-1.061653.979122-.835883.825643-.944143.917932-.853338.786236-.92268,1.072184-.561529.881881-.841126,1.095907-.408469,1.002602-.598706,1.106651-.360259,1.375885.041411,1.052176.665247.86093,1.011718.369167,1.404454-.125703,1.315775.146487,1.317274-.27044,1.315812.017394,1.31735-.064688,1.316613.199125,1.31712.017992,1.314212-.003009,1.314245-.15533,1.318593.061939,1.316417-.071858,1.318183.183307,1.31967-.014798,1.31779-.08282,1.320875-.113828,1.323004.098867,1.323004-.078917,1.265816-.742789.904448-1.028541.485357-1.157049.226852-1.330098.145194-1.331883-.058386-1.333385-.072195-1.331486.181481-1.334602.090686-1.336754.055898-1.336754-.324709-.600681.030709-.508536.286804-.32542.462878-.015309.729811-.024293,1.316965-.04675,1.314758-.05089,1.313285-.01005,1.312595.200853,1.312746-.188674,1.3138.13685,1.315825-.020425,1.317228.09111,1.315224-.204927,1.314477.316332,1.3151.003792,1.317225-.320004,1.316977.125551,1.315818-.006117,1.316725.192781,1.318225-.081104,1.316762-.25674,1.318301.276698,1.317564.023978,1.318071-.079496,1.315161-.025619,1.315194-.125399,1.319545.12894,1.317367-.015156,1.319135.150778,1.320623-.20119,1.318742.125964,1.321828.038656,1.323959-.086623,1.323959-.246794,1.21582-.561614,1.035571-1.042333.505849-1.20857.368138-1.348488-.126746-1.350064.081191-1.349309-.07904-1.349828.170378-1.346848-.222864-1.346882.050618-1.351338.118858-1.349108-.088437-1.350918.014939-1.352442-.181253-1.350515-.003857-1.353676-.005226-1.355858.028921-1.355858.054236-1.178555-.253971-.882639-.621442-.783825-.832978-.295515-1.228704.239009-1.309547-.032648-1.310578-.041187-1.309875-.028422-1.309172.143434-1.308763-.198093-1.30866.129799-1.308876.042307-1.309426-.044371-1.310325-.252014-1.310482.301665-1.309677-.169161-1.306587.184165-1.305544-.268322-1.304953.270549-1.30484-.176766-1.30523-.109113-1.306151.174094-1.307637.096053-1.309719-.065263-1.312129.017427-1.30993-.047793-1.308462-.114154-1.307775.153103-1.307925.084048-1.308975-.041698-1.310993.005867-1.31239-.13911-1.310394.053193-1.30965.020675-1.310271-.019611-1.312388-.024858-1.31214-.07352-1.310986.087818-1.31189.042915-1.313384-.061167-1.311927-.032702-1.31346-.153027-1.312725.041796-1.31323.110894-1.310331.169802-1.310364-.152821-1.314699.017557-1.312529-.19089-1.314291.086601-1.315773.077551-1.313899.004259-1.316974.128354-1.319097-.228156-1.319097.362963-1.209648.477517-1.072826,1.001599-.65812,1.280387-.149489,1.297318.165098,1.297818-.101855,1.294952.016395,1.294985.040829,1.299269-.136665,1.297125.183133,1.298865-.181405,1.300331.10745,1.298478-.179526,1.301517.033474,1.303615.257023,1.303615-.298688.997303.475542.915053.345551.690883.74407.33238,1.066328.23783,1.21017-.121992,1.257954.228734,1.211262.417543,1.195419-.090807,1.252279Z" fill="#885263"/>
      <path d="M267.172547,41.259785l-.450753.490533-.444289.472425.324269,1.290808-.194632,1.291844.105584,1.293835-.084439,1.295214-.169807,1.293244.162396,1.29251-.112327,1.293122-.086638,1.295211.357774,1.294967-.268832,1.293828.115561,1.29472-.051077,1.296195.199188,1.294757-.016615,1.29627-.070822,1.295545-.271516,1.296043.128668,1.293182-.003195,1.293215.210488,1.297493.046298,1.295352-.226855,1.29709-.040628,1.298553-.061002,1.296703-.074593,1.299738.106606,1.301833.299156,1.301833-.172361.675997.291587.453832.533093.037152.524202.251334,1.102539-.182599,1.102539.095594,1.266055.150047,1.045077.608494.4541,1.116338.226722,1.204456.11255,1.392211.073113,1.389914.083064,1.391778-.401506,1.393349.111764,1.391364.10366,1.39462-.130056,1.396868.006036,1.396868-.158825,1.200992-.574444,1.015829-1.027911.49308-1.189399.491056-1.398237-.078311-1.400491.03255-1.400491-.104812-1.297505-.12607-1.298044-.073063-1.306061.121108-1.279166-.327471-1.326895.272735-1.276644-.271829-1.280964-.19558-1.353833-.171263-1.305337-.395054-1.325059-.306835-1.348563-.244928-1.278499-.480321-1.12565-.748227-1.102403-.741915-1.199115-.612428-.91683-.976926-.87478-.858716-.70881-1.000044-.448451-1.148551-.635375-1.038749-.486215-1.233352-.527884-1.230801-.004982-1.359863-.170429-1.309714-.118706-1.235228-.156044-1.234598-.200005-1.235476-.013255-1.249478-.12934-1.249564.186684-1.323356-.208432-1.324767.000773-1.322752.350429-1.322-.057702-1.322627-.256485-1.324764-.055817-1.324514-.048498-1.323349.139025-1.324261.024642-1.32577-.127699-1.324298.276661-1.325846-.089087-1.325105.045853-1.325615-.02929-1.322688-.064759-1.322721.087201-1.327097.007372-1.324907.10493-1.326685-.001074-1.328182-.351228-1.326289.250252-1.329394-.168419-1.331537-.043679-1.331537-.139826-.342438-.349676-.199381-.271484-.035064-1.191036-.329497-1.116555-.442037-.489012-1.082543-.204057-1.224314.147313-1.392211.017506-1.389914-.074841-1.391778-.21549-1.393349.02184-1.391364.207005-1.39462.033231-1.396868-.035169-1.396868.280505-1.152337.509492-.956566.880948-.746533,1.228319-.005254.271484-.328707.564571.068647-.070146-.564796.236557-1.461342.051941-1.464762-.338108-1.467124.400576-1.467124-.064015-.853473.435365-.664702.482719-.705469.82335-.298251,1.19551-.536099,1.296801-.228383,1.193097-.542252,1.229588-.415491,1.240478-.401744,1.199853-.513776,1.227377-.431847,1.230912-.434842,1.334007-.120797,1.233867-.424757,1.130371-.737853,1.240978-.402339,1.24861-.38591,1.327265-.163033,1.13835-.726609,1.79704-.073384,1.415845.666997,1.106252,1.107169.265552,1.72825-.138632,1.247412.244491,1.251539-.093735,1.249473.085224,1.25115.146449,1.252561-.224642,1.250777-.036766,1.252703-.105178,1.256226-.0011,1.256226.309851.641954.641819.298273,1.404785-.248472,1.404785-.106475,1.156626.596269,1.053046.445693.611058.980727.104265,1.228456.331575,1.392211-.340465,1.389913.266213,1.391779-.122501,1.393349-.033676,1.391364.210566,1.39462-.329755,1.396868.245224,1.396868-.523439,1.145422-.382884,1.099943-.992149.623322-1.253704.269579-1.408628-.044094-1.400943-.220705Z" fill="#885263"/>
      <path d="M310.274725,23.635669l1.229771.009939,1.157607.418041,1.24757-.01591,1.103963.583135,1.165015.313964,1.166155.327329,1.37355.401917,1.258211.674581.992629,1.054836,1.239637.712424.933978.869171.744614,1.036527.732125,1.042508.309948,1.2624.75766,1.135597.424546,1.280812.108659,1.358039.350277,1.302382.294412,1.22567-.073441,1.263856-.0713,1.253031.244011,1.243044-.059363,1.253707.048029,1.307024-.057718,1.308417.043202,1.306427-.067206,1.305685.145668,1.306304.047173,1.308414.050243,1.308168-.054881,1.307017-.072278,1.307918-.06259,1.309408.203185,1.307955-.305852,1.309484.063023,1.308751-.012046,1.309255-.063413,1.306364.327241,1.306397-.130496,1.310719-.145779,1.308556-.036651,1.310312.052445,1.31179.054748,1.309921-.133599,1.312987.178792,1.315104.133043,1.315104-.232454,1.251547.13363,1.257499-.280992,1.238174.118017,1.265429-.109709,1.249643-.241828,1.334755-.301894,1.325802-.427447,1.288461-.709211,1.16536-.679402,1.055597-.575491,1.120094-.70233,1.057119-1.006225.780941-.935274,1.088451-1.358074.507912-1.198918.727876-1.319477.48553-1.045457.65567-1.143641.425866-1.189938.272698-1.17235.337607-1.246599-.034607-1.203896.169641-1.367702.21637-1.367492.27534-1.391937.049029-1.398746-.111833-1.378627.31901-1.397511-.075559-1.395567-.027004-1.394469.114376-1.395827-.05948-1.386334-.24737-1.407936.232075-1.374439-.336769-1.383433-.119173-1.371999-.207027-1.20662-.166524-1.23107-.05652-1.172702-.343609-1.150547-.413706-1.21362-.188304-1.047399-.661169-1.374119-.377513-1.303413-.578038-1.044027-.983706-1.230948-.732206-.685411-1.087562-.877544-.900847-.668083-1.064104-.72318-1.046107-.432972-1.28417-.323371-1.305636-.470857-1.272527.015057-1.368365-.277257-1.222048.022432-1.255595-.263523-1.233633.140271-1.257291-.129268-1.249869.130719-1.307024-.229814-1.308417.059386-1.306427.12895-1.305685-.305117-1.306304.356139-1.308414-.057873-1.308168-.224308-1.307017.089596-1.307918.016863-1.309408-.155745-1.307955.158548-1.309484.090008-1.308751-.203219-1.309255.045137-1.306364-.058852-1.306397.228858-1.310719-.229903-1.308556.056294-1.310312.159983-1.31179-.226043-1.309921.086671-1.312987-.088317-1.315104.055059-1.315104-.012437-1.255713-.018394-1.256722.263015-1.240986.069198-1.248751.280507-1.222328-.00191-1.367148.369594-1.304404.545578-1.236493.528789-1.229024.606741-1.095432.676734-1.05154.725036-1.02666.867366-.91203,1.100821-.877357,1.223201-.691411,1.128935-.874504,1.383843-.358016,1.122521-.442746,1.113068-.510861,1.172035-.340453,1.239453-.017833,1.15392-.45301,1.207808-.18809,1.380015-.168978,1.378916-.199451,1.408072.14787,1.376106-.342466,1.394566-.013137,1.400129.137134,1.396364-.283254,1.391369.201697,1.390455.131626,1.397224-.083854,1.380265.208928,1.384342.134174,1.394694-.007926,1.353672.332154ZM302.11629,41.558193l-.287468-.649778-.150219-.555837-.566945.037042-.528955-.340102-.61289.107932-.4213.303983-.118785.494938-.090487.601821-.325806,1.312152.253962,1.312302.070976,1.313356-.065582,1.31538.03991,1.316782-.318454,1.31478.258512,1.314033.00753,1.314656-.214976,1.31678.12598,1.316531.146091,1.315373-.184988,1.31628-.146847,1.317779.200738,1.316317-.073323,1.317856.048029,1.317118-.057718,1.317625.043202,1.314716-.067206,1.314749.145668,1.319099.047173,1.316922.050243,1.318689-.054881,1.320177-.072278,1.318296-.06259,1.321382.203185,1.323512-.305852,1.323512.173869.676476.299392.444207.449344.303311.630156-.245608.545353.056855.512835-.105009.348031-.43068.062921-.699553-.054748-1.312152.133599-1.312302-.178792-1.313356-.133043-1.31538.218524-1.316782-.17718-1.31478.205721-1.314033-.229581-1.314656-.040199-1.31678.013615-1.316531-.019388-1.315373.007897-1.31628.202129-1.317779.105091-1.316317-.135045-1.317856-.114323-1.317118.179604-1.317625-.235209-1.314716.331157-1.314749-.070331-1.319099.090998-1.316922-.253206-1.318689-.066316-1.320177.039598-1.318296-.074636-1.321382.263752-1.318662.054757-1.328361Z" fill="#885263"/>
      <path d="M376.735047,94.38017l-1.29957.094007-1.242308-.399829-.857174-.963251-.780033-.946484-.276286-1.210912-.50769-1.242189.39781-1.320248-.051215-1.320355-.140988-1.32062.026348-1.321049.105996-1.321648-.12186-1.322422-.253974-1.323375.293496-1.323214.153515-1.322422-.286233-1.321832-.051761-1.321449.348825-1.321283-.461092-1.32134.441158-1.32163-.43483-1.32216.198057-1.322942.123629-1.323983-.273649-1.323273.112066-1.322563.032331-1.322149.05005-1.322045.126779-1.322263-.235508-1.322819.038702-1.323727-.156492-1.323885.162978-1.323072-.155025-1.319951.42075-1.318897-.186004-1.318301-.114281-1.318186.28271-1.31858-.197352-1.319511-.108355-1.321011.261467-1.323115-.107435-1.32555.087616-1.323328-.165869-1.321845.204931-1.321151-.116654-1.321303-.078972-1.322363.100287-1.324402-.198948-1.325814.049863-1.323797-.09032-1.323045.386002-1.323672-.121989-1.325811-.273937-1.325561.333709-1.324395-.113288-1.325308-.124305-1.326817.022781-1.325345-.106831-1.326894.052639-1.326152.195036-1.326662.104688-1.323733-.210382-1.323767.234228-1.328146-.3387-1.325954.054149-1.327733.005839-1.329231.179647-1.327337-.057342-1.330444-.223038-1.332589.095785-1.332589.356301-1.254298.380631-1.173139.624877-1.061293.948193-.858204,1.261513-.244038,1.264306-.038896,1.344079-.22836,1.345005.233609,1.346537-.366917,1.345043.250436,1.346615-.072831,1.345862-.129252,1.34638.376654,1.343407-.392014,1.343441.362027,1.347885-.334816,1.345661.387915,1.347466-.162259,1.348987.088982,1.347065-.213863,1.350218.021372,1.352394-.094275,1.352394.160231,1.399675-.000628,1.405128-.088327,1.407336-.049511,1.395745.156184,1.38586.274837,1.395333.073474,1.377754.2258,1.178066.339849,1.237918-.012006,1.163583.368635,1.248024.038411,1.109523.537203,1.19501.263057,1.153522.861902,1.380835.368525,1.183277.762284,1.128711.847446.669691,1.079304,1.008463.772447.616397,1.087145.565699,1.104693.430891,1.252108.294369,1.283212.637586,1.208594.119293,1.33171.209908,1.229611-.050136,1.254709.005233,1.242669-.058827,1.245272.117859,1.242235.007968,1.269778.037135,1.271482-.095886,1.272916-.002287,1.271103-.026995,1.273061.124751,1.276641-.028031,1.276641.169761,1.476271-.324254,1.4576-.107493,1.460833.245012,1.400443-.558978,1.278161-.3529,1.302942-.448283,1.198384-.462903,1.207167-.757229,1.04604-.769833,1.145883-1.05697.886016-1.233437.617887-1.206322.79024-.381206,1.377152.655793,1.103388,1.005687.960488,1.263272.685185,1.076179.948047,1.053192.983815.880841,1.026502.244036,1.38039.901945,1.06482.387665,1.348097-.04418,1.432638.280491,1.355582.295741,1.485403-.23567,1.519961.402465,1.50207-.216336,1.24406.275519,1.248176-.154507,1.246116-.156765,1.247788.130777,1.249196-.200128,1.247416-.065813,1.249338.091053,1.252851-.03515,1.252851-.028546,1.243112.236228,1.255127-.202584,1.23768-.275829,1.219251-.104807,1.234842.070791,1.375771-.641785,1.216929-.322263,1.296971-.536844,1.223712-.694636,1.058755-.608528,1.121687-.87496.925499-.931983.860775-1.026244,1.036634-1.248481.744812-1.436624.340263-1.203635.848743-1.260661.128858-1.204715.256323-1.116327.634028-1.265336-.017979-1.206208.27728-1.227915.158757-1.386024.198532-1.407541-.009755-1.370545.529111-1.420461-.180175-1.404132.04244-1.40914.00994-1.409719.032795-1.344079-.199696-1.345005.225972-1.346537-.02422-1.345043-.098273-1.346615.035107-1.345861.128519-1.34638.096101-1.343407-.356591-1.343441.375245-1.347885-.047677-1.345661-.273117-1.347466-.037451-1.348987.132316-1.347065-.112727-1.350218.254909-1.357869.07343-1.346919-.246289ZM396.810442,35.878993l.507102.866644.866721.313193,1.359375.30099.911422-.175001.766983-.194881.115764-.731348.527299-.681843-.051215-1.257245-.140988-1.263011.026348-1.260222.105996-1.260254-.12186-1.264423-.253974-1.262337.293496-1.26403.153515-1.265457-.286233-1.263654-.051761-1.2656.348825-1.269159-.461092-1.269159.26948-.860479-.726235-.22435-.53817-.383596-.8876-.168871-1.359375.273649-.891454.187271-.345106.874131-.05005,1.312395-.126779,1.3129.235508,1.310001-.038702,1.310034.156492,1.314369-.162978,1.312199.155025,1.31396-.42075,1.315442.186004,1.313568.114281,1.316643-.282552,1.310796.097238,1.326734ZM396.810442,74.607021l.507102.836371.866721.312705,1.449219.30099.923649-.1588.765781-.177172.116152-.738964.516863-.677375-.051215-1.344535-.140988-1.343783.026348-1.3443.105996-1.341332-.12186-1.341366-.253974-1.345804.293496-1.343583.153515-1.345386-.286233-1.346904-.051761-1.344985.348825-1.348133-.461092-1.350306.441158-1.350306-.552446-.681948-.216074-.564326-.638827-.344975-.917313.227601-1.449219-.112066-.913768.27594-.372842.897527-.126779,1.290308.235508,1.291816-.038702,1.291093.156492,1.29159-.162978,1.288738.155025,1.288771-.42075,1.293035.186004,1.290901.114281,1.292633-.28271,1.294091.197352,1.292247.108355,1.295272-.26134,1.291037.053029,1.303683Z" fill="#885263"/>
      <path d="M465.448043,23.665813l1.240214-.054766,1.205176.192355,1.199161.222933,1.134842.478026,1.111474.492536,1.233909.148591,1.181717.820239,1.221275.681219,1.351006.515871.878162,1.143948.861556.89836.932333.859842.564351,1.130675.677678,1.060179.644478,1.192477.297594,1.318767.218364,1.328119.340897,1.304852.180167,1.238358-.117184,1.264419.240603,1.23469.155202,1.249438-.15333,1.255723.016562,1.291814.127526,1.291229-.018854,1.291117-.214042,1.291503.319188,1.292415-.287198,1.293884.111665,1.295945.179415,1.29833-.269323,1.296154.165623,1.294701.001135,1.294021-.06566,1.29417-.13489,1.295209-.024905,1.297205.094635,1.298588-.026729,1.296613.013381,1.295876.024771,1.296491.052423,1.298585.024905,1.29834-.034415,1.297199.06022,1.298093-.217456,1.299571.118884,1.298129.108439,1.299646-.085381,1.298919.094947,1.299419-.200293,1.29655.027652,1.296583-.020133,1.300873.197635,1.298726-.247567,1.300468.125835,1.301936.14856,1.300081-.174299,1.303124-.036906,1.305224.196434,1.305224-.446522,1.042539-.353519,1.093529-1.057119.490196-1.109223.379075-1.347628-.228757-1.348147-.028375-1.34517.216956-1.345204.05091-1.349655-.336918-1.347427.052824-1.349235.004116-1.350757.153677-1.348833.106581-1.35199-.244719-1.354169.029432-1.354169.033392-1.589373-.610273-1.123418-1.384093-.068577-.332-.089032-.558635-.448745-.158018-.45649.024475-.510148.207937-1.156323,1.099724-1.342671.868312-1.067006.392514-1.017742.491057-1.150451.110356-1.097281.573884-1.211214.174264-1.225783.017281-1.282735.418358-1.328679-.000354-1.324566-.161396-1.299006.311348-1.294057-.079305-1.267757-.357108-1.289495-.056385-1.292559-.121291-1.075765-.629994-1.180574-.233721-1.055923-.564208-1.092733-.479674-1.025197-.807402-.996497-.835695-.971068-.909819-.475751-1.1943-.607724-1.107601-.404919-1.197719-.47373-1.268-.229477-1.334334.025608-1.358517-.320084-1.428532.024641-1.452731-.082691-1.449755.161963-1.282805.113322-1.280688-.207312-1.282407.091632-1.283854.140273-1.282024-.100419-1.285025-.07319-1.287096.133032-1.287097.054203-1.444699-.230442-1.455674.083299-1.447341.42003-1.304104.232557-1.309138.303001-1.295692.39827-1.183749.568231-1.110923.694949-1.031476.751742-1.045439.825984-1.035255,1.210263-.54742,1.009689-.637134,1.077999-.51953,1.152633-.346173,1.13568-.423809,1.286527-.163544,1.270295-.259173,1.290123-.061959,1.294124-.068681,1.2963-.044136,1.92336.055441,1.837961.1308,1.738115.21638,1.535172.670574,1.783934-.020367,1.495971-.356661.781884-1.216207.428174-1.565225-.019132-1.402323.114023-1.403905-.145401-1.401905.150039-1.405186-.065726-1.407451.128594-1.407451-.436532-1.127075-1.040475-.095892-1.053338.056068-.29542,1.166899-.040888,1.525635.083523,1.525635-.342926,1.065432-.383227,1.100592-1.028512.572771-1.137454.265854-1.324812-.120674-1.32636.020133-1.325618-.01387-1.326129-.145379-1.323201-.021935-1.323234.00337-1.327612.212484-1.325421.064169-1.327199-.213196-1.328697-.086315-1.326804.102355-1.329909.036784-1.332053-.035227-1.332053.213029-1.095376-.392134-.985634-.547214-.565511-.978675-.366148-1.102354.038564-1.238525.036428-1.238525.111065-1.436314.105732-1.434881.1252-1.426893.232804-1.412197.050289-1.253515.373066-1.192886.43974-1.160561.359617-1.197212.723104-.956442.445363-1.131984.786298-.907424.979791-.701313,1.07677-.810062,1.15113-.697944,1.144937-.726603,1.247656-.534666,1.300052-.57339,1.358549-.421517,1.378475-.337269,1.446074-.002878,1.355152-.542916,1.383183.128707,1.343642-.184035,1.359637-.024882,1.348088-.260009,1.365081.146145,1.359976-.150371,1.364549-.048034,1.3932-.089455,1.386981.315384,1.390847.0299,1.39222-.018147,1.393015.052548,1.367811.255279,1.36353.239238ZM456.338842,79.985306l.339703-.452148.232547-.391897.052891-.606994.173576-1.30853.141875-1.310286-.283717-1.311764.275953-1.309895.020266-1.312962-.32228-1.315078.309945-1.315078-.115498-.722679-.458174-.339178-.390497-.345644-.585268.043805-.557967.195171-.459855.091369-.375069.381567.005841.695589.031134,1.30853-.228613,1.310286.165623,1.311764.111754,1.309895-.167313,1.312962.016562,1.315078.127526,1.315078.08132.622764.130118.545093.579438-.051913.539501.355769.608678-.020673Z" fill="#885263"/>
      <path d="M485.051404,5.005458l-.193759-1.321678.647714-1.157919.540705-1.205952,1.20791-.522222,1.200164-.361326,1.260401-.008952,1.282282-.217458,1.282776-.182624,1.279944.1747,1.279976.095843,1.284211.010168,1.282091-.004545,1.283812-.037465,1.28526.158736,1.283429-.374324,1.286433.317644,1.288507-.101653,1.288507-.24687,1.246664.538363,1.245987.197968,1.208041.548875.461642,1.250775.386563,1.185738.424577,1.264179-.220464,1.320248-.119674,1.320355.309432,1.32062-.048036,1.321049-.178526,1.321648.154766,1.322422-.011621,1.323375-.04086,1.323214-.172284,1.322422.34136,1.321832-.247934,1.321449-.037537,1.321283.287255,1.32134-.04109,1.32163-.078196,1.322161-.132589,1.322941.112037,1.323983-.059614,1.323273.132258,1.322563-.151458,1.322149.007306,1.322045.183459,1.322263-.34113,1.322819.342712,1.323727-.022882,1.323885-.325597,1.323072.215818,1.319951-.126016,1.318897-.14037,1.318301.305132,1.318186-.145001,1.31858-.159498,1.319511.006314,1.321011.421397,1.323115-.414263,1.32555.417427,1.323328-.310769,1.321845-.042154,1.321151.035078,1.321303.00535,1.322363.246985,1.324402-.100733,1.325814-.128174,1.323797.286047,1.323045-.285442,1.323672.015159,1.325811.176584,1.325561.096706,1.324395-.38583,1.325308.228187,1.326817.089601,1.325345-.022364,1.326894-.186651,1.326152.138126,1.326662-.299177,1.323733.133193,1.323767.242382,1.328146-.294561,1.325954.226346,1.327733-.005609,1.329231-.01362,1.327337-.142225,1.330444-.001323,1.332589.031008,1.332589-.282077,1.240409-.026497,1.321542-.838927,1.002844-1.115016.618583-1.179329.483966-1.285779-.001074-1.282282.122838-1.282776-.079418-1.279944.1832-1.279976-.233149-1.284211-.045649-1.282091.221097-1.283812-.048453-1.28526-.06472-1.283429.256002-1.286433-.243677-1.288507.120594-1.288507-.055803-1.267793-.211646-1.179191-.423934-1.21714-.498974-.733293-1.107647-.156719-1.296849-.209919-1.260082-.197395-1.320248.32134-1.320355-.319082-1.32062.333795-1.321049-.149387-1.321648.080713-1.322422-.171133-1.323375.132114-1.323214-.273477-1.322422.308238-1.321832-.249444-1.321449.180467-1.321283.213704-1.32134-.072759-1.32163.047044-1.322161-.372627-1.322941.386161-1.323983-.078009-1.323273-.223786-1.322563.072687-1.322149.209893-1.322045-.228748-1.322263.153342-1.322819-.26512-1.323727-.062404-1.323885.144397-1.323072.007853-1.319951.037264-1.318897.12534-1.318301-.098029-1.318186.021386-1.31858-.070228-1.319511-.025816-1.321011-.051963-1.323115.253845-1.32555-.080037-1.323328.181977-1.321845-.380609-1.321151-.029469-1.321303.084136-1.322363-.003682-1.324402.044556-1.325814-.170558-1.323797.364818-1.323045-.161986-1.323672.157571-1.325811-.110426-1.325561.15038-1.324395-.342525-1.325308.270427-1.326817.097195-1.325345-.212396-1.326894.15166-1.326152-.167926-1.326662.009938-1.323733.080209-1.323767-.168142-1.328146.0362-1.325954.174024-1.327733.068056-1.329231-.217401-1.327337.262172-1.330444-.441602-1.341812.334181-1.323365Z" fill="#885263"/>
      <path d="M565.178213,44.700282l-.354512,1.043388-.46042.999128-1.025902.361841-.999795.302628-1.284177-.015183-1.282752.033158-1.284252.02971-1.283533-.074925-1.284027.025149-1.281192-.074469-1.281225-.05358-1.285463.099919-1.283342.071021-1.285064.009032-1.286514.037218-1.284681-.044325-1.287688.035249-1.289763-.185255-1.289763.026239-1.075131-.046576-.82474-.680395-.765346-.792359-.138404-1.10661-.063079-1.571045.044314-1.571045-.115307-.632636-.154934-.514514-.508185-.063467-.568134-.030024-.528106.075297-.585267-.061734-.05679.606782-.056938.620296-.170662,1.155873.101042,1.159124-.060732,1.159124.034556,1.241112.767192.975528.879283,1.090729,1.089973.906248,1.118943.387657.984775.62986,1.030849.557829,1.271545.475676,1.255449.523295,1.277509.470785,1.394294.503791,1.273255.802413,1.472014.330454,1.323763.793284,1.323643.768556,1.338273.732885,1.328001.729797,1.386939.665266,1.101703,1.06539,1.225605.899556.978315,1.162027.971426,1.163874.643786.992649.428231,1.105814.540274,1.044569.382937,1.11228.253252,1.31012.29595,1.294485.306437,1.318506-.115719,1.348398.103634,1.303178.114712,1.306228-.25364,1.308334-.025261,1.308334.06562,1.432319.039253,1.439759-.241112,1.415207-.326437,1.393734-.137445,1.239023-.425268,1.172116-.179106,1.260338-.692043,1.055258-.633871,1.009685-.537588,1.0902-.902681.807996-.737825.972796-1.265727.627275-1.021311.985254-1.355588.3991-1.185298.773792-1.465476.163796-1.299538.709181-1.452691.114549-1.423293.244762-1.426706.23057-1.349117.186942-1.351386.202243-1.370946-.014204-1.365408.05477-1.360199.189338-1.372593-.080959-1.370662.186362-1.368797-.04267-1.368478-.115617-1.365245-.128175-1.359809-.131308-1.371083-.002972-1.359672-.108395-1.353593-.162909-1.418469-.285888-1.445065-.126921-1.408726-.339706-1.401011-.353769-1.32484-.579073-1.241275-.633018-1.204771-.68136-1.203073-.679533-1.128774-.803799-.902979-.813432-.793834-.921994-.711072-.986117-.686066-1.012069-.58161-1.130866-.305946-1.234709-.357853-1.211201-.034342-1.273634-.450284-1.389583-.198063-1.430071.144125-1.453148-.232257-1.440691.284306-1.238525.033058-1.238525-.071523-1.100954.727755-.825126.798844-.794762,1.127218-.023315,1.290229-.156146,1.288797.220059,1.290303-.027774,1.289582-.009955,1.290078-.092577,1.28723.038953,1.287262-.029454,1.291521-.129962,1.289389.044125,1.291119.122254,1.292576.003904,1.290734.073512,1.293756.045382,1.295841-.13856,1.295841.08943,1.058549.182021.938692.540999.577425.909591.115062,1.058355.253962,1.570801-.072333,1.570801.049228.634698.244169.430983.394081.389749.61011-.224966.636127.214278.322217-.468977.41654-.301122-.037323-.674643.186356-1.155873-.284629-1.159124.263495-1.159124-.384638-1.161354-.575143-1.022019-.921536-1.025001-1.040331-.949271-.99828-.598455-1.017936-.582971-1.087342-.441622-1.196346-.640821-1.322251-.353133-1.210944-.622177-1.33726-.614336-1.412544-.442405-1.348595-.596888-1.468451-.463562-1.280615-.85645-1.297492-.802429-1.395034-.620798-1.251889-.858851-1.264272-.850394-1.058794-1.085714-.927776-1.188736-.908437-1.187344-.723732-.928092-.605852-1.010757-.319626-1.144561-.582293-1.038452-.237353-1.319366-.383843-1.285297.076239-1.35119-.138176-1.330112-.221171-1.310727.309756-1.313795-.117871-1.315913.132665-1.315913-.252438-1.434073.245318-1.422266-.094644-1.443513.50988-1.371583.129474-1.241035.280681-1.218873.282255-1.232762.717305-1.048766.504167-1.095891.718675-.96721.912653-.791888.793999-.897801.9995-.970447,1.252251-.609665,1.271321-.535054,1.28068-.498198,1.291398-.651613,1.423558-.244206,1.365114-.457806,1.431246-.188185,1.39679-.416719,1.38189.076945,1.346721-.216523,1.362632-.075939,1.364304-.055124,1.36189-.082667,1.366663-.154759,1.371097.242428,1.366942-.064126,1.375131-.186986,1.368516.115772,1.35145.30923,1.383723-.140566,1.358421.152521,1.326879.374444,1.445839.088248,1.42149.24058,1.430836.237458,1.376444.434737,1.353633.494892,1.18583.753307,1.264302.557097,1.098544.833833,1.266239.622457.791385.933755.829989.888449.784771.941133.469755,1.1347.365273,1.208546.654359,1.098225.265521,1.237594.159779,1.251528.27243,1.405798.086477,1.427197-.019063,1.434172.083783,1.430623.172062,1.235097-.007729,1.242442Z" fill="#885263"/>
      <path d="M603.922585,23.672934l1.241095-.060955,1.204405.195955,1.170971.338566,1.178414.307179,1.167975.331845,1.107411.499916,1.334344.480273,1.250328.670446,1.223469.728537,1.009184,1.005844.845562.935053.855181.933045.606139,1.111117.717503,1.050914.264641,1.343494.395755,1.268622.374535,1.283913.313156,1.308175.211856,1.233883.169784,1.243025.092816,1.249313-.216676,1.261183-.029245,1.250387.34575,1.291814-.314939,1.291229.165033,1.291117.122309,1.291503-.282905,1.292415.15143,1.293884.154611,1.295945-.351378,1.29833.121064,1.296154-.036005,1.294701.104045,1.294021-.088073,1.29417.244352,1.295209-.05744,1.297205-.072122,1.298588-.162219,1.296613.035549,1.295876.228046,1.296491-.29702,1.298585.147303,1.29834.008698,1.297199-.085626,1.298093.081221,1.299571-.042212,1.298129.020177,1.299646.128483,1.298919-.125391,1.299419.089218,1.29655.024449,1.296583-.238868,1.300873.243796,1.298726-.272549,1.300468.212117,1.301936.021912,1.300081-.228279,1.303124.066794,1.305224.119773,1.305224-.101584,1.142404-.593706,1.015648-1.094416.427055-1.093909.130053-1.347628.076071-1.348147-.074836-1.34517.173364-1.345204.024404-1.349654.007708-1.347427.043458-1.349235-.195677-1.350757.21264-1.348833-.077517-1.35199.096771-1.354169-.126536-1.354169-.089285-1.567797-.60912-.929866-1.407475-.169919-.313342-.321961-.417541-.33108-.26131-.494087-.113799-.542361.257029-1.217853.99341-1.261826.963414-1.043691.425379-1.073044.33541-.960703.660809-1.214109.19632-1.170522.380912-1.250406-.104977-1.297199.263092-1.323054.018402-1.320758.205112-1.298412.022513-1.271698-.40138-1.316536.216655-1.228449-.502478-1.27245-.145132-1.222624-.083098-1.110001-.487202-1.113535-.455325-1.058596-.57209-1.111014-.716817-.792688-1.067691-1.06315-.828228-.367183-1.25524-.562592-1.114818-.611761-1.120585-.229591-1.327356-.195813-1.326478-.127128-1.332785-.33755-1.426159.095787-1.453555.05766-1.447095-.010378-1.282805-.020711-1.280688.068307-1.282407-.154945-1.283853.06368-1.282024-.043636-1.285025-.09567-1.287096.007553-1.287096.243543-1.444906-.212937-1.454998.217766-1.436484.095497-1.341758.310236-1.305516.453964-1.258503.241295-1.243539.574089-1.121635.751921-1.00728.7264-1.081674,1.017732-.815114.962759-.910261,1.177245-.341351,1.064985-.531803,1.160495-.300415,1.116833-.473366,1.293725-.091289,1.250654-.367733,1.289368-.052022,1.294667-.000842,1.29289-.163467,1.926594-.001808,1.831836.221706,1.708613.366381,1.574989.46559,1.775567-.000321,1.423845-.461665.957736-1.047186.516052-1.619053-.095125-1.402323.04774-1.403905-.197869-1.401905.222907-1.405186.015261-1.407451-.282982-1.407451-.218571-1.071712-.996632-.374173-.921523.452496-.585527.993389.15064,1.525635.145412,1.525635-.292034,1.120943-.774126.800086-.762159.874111-1.158925.020249-1.324812-.048975-1.32636-.098951-1.325618.016262-1.326129.206311-1.323201.125124-1.323234-.117171-1.327612-.207212-1.325421.273305-1.327199-.014705-1.328697-.197935-1.326804-.024771-1.329909.265097-1.332053-.02763-1.332053-.248746-1.107226-.056028-.888128-.664032-.632518-.900078-.116086-1.095256-.091854-1.238525-.078763-1.238525.070329-1.436837.125675-1.434212.104631-1.428885-.012536-1.448477.273049-1.224038.448175-1.174374.291094-1.213185.535438-1.125459.520755-1.070232.695258-.965443.725052-.945297.839161-.848415,1.062378-.857191,1.099496-.822716,1.320347-.416696,1.191248-.670874,1.335506-.485919,1.351008-.453633,1.427584-.116642,1.392134-.274911,1.390694-.310406,1.363819-.012254,1.343724-.184781,1.341397-.313374,1.369009.08217,1.362021.06572,1.36279.021978,1.362682-.148474,1.391733-.024396,1.389139.188779,1.404867-.256492,1.381512.231886,1.395529.039559,1.370485.248454,1.353296.325591ZM594.816454,79.992212l.338283-.458328.23622-.390864.172255-.608753-.00277-1.30853-.028386-1.310286.089819-1.311764-.096949-1.309895-.003048-1.312962-.074291-1.315078.119562-1.315078-.068278-.668022-.346168-.35929-.382564-.291904-.564391.085849-.622288-.206392-.504328.232156-.27333.509257-.022598.698346.063135,1.30853.059153,1.310286.017207,1.311764-.260336,1.309895-.043169,1.312962.34575,1.315078-.314939,1.315078.268357.63862.357579.30301.303572.469036.626234-.070362.610705.11764Z" fill="#885263"/>
      <path d="M693.518949,23.388866l1.189845.267169,1.063867.638502,1.072611.535759,1.112967.455319,1.043924.783327,1.036242.797106.728789,1.084272.740108.975311.438926,1.143888.600977,1.07792.173854,1.259386.487539,1.190719.063357,1.27138.19664,1.304964-.117089,1.322429-.012411,1.312851.257627,1.315865-.114387,1.315056-.104785,1.311954.146025,1.310907.114607,1.310314-.181646,1.3102-.095123,1.310591.235309,1.311517-.173339,1.313008.027229,1.315099.018213,1.317519.062861,1.315311-.241441,1.313837-.007537,1.313147.267827,1.313298.046407,1.314352.06379,1.316378-.364013,1.317781.334634,1.315777-.001515,1.315029-.241295,1.315653.175795,1.317778-.097432,1.31753-.133382,1.316371.24667,1.317278.086242,1.318779-.064169,1.317316-.242638,1.318855.032897,1.318117-.076213,1.318625.025298,1.315713.1949,1.315747-.206505,1.3201.157398,1.317921.159841,1.319689-.037697,1.321178-.264199,1.319296.158998,1.322384.067919,1.324515.081417,1.324515-.248166,1.282354-.884066.818996-.886677.672166-1.214185.29674-1.348488.104517-1.350064-.062312-1.349309-.12659-1.349828-.151925-1.346848.020156-1.346882.330835-1.351338-.189049-1.349108.200214-1.350918-.10073-1.352442-.179142-1.350515.089748-1.353676.006584-1.355858.132686-1.355858-.153855-1.190571-.241142-.904944-.654246-.827131-.836749-.07781-1.259253.037783-1.303311.023723-1.302271-.163237-1.301682.25279-1.301569-.250298-1.301957.241417-1.302877-.099349-1.304358-.074259-1.306436-.129058-1.30884.195914-1.306646.011275-1.305182-.079731-1.304496.015978-1.304646.137487-1.305693-.244422-1.307706.197416-1.3091-.013376-1.307109-.083225-1.306367.110747-1.306986-.108218-1.309097.039627-1.308851.03027-1.3077.016992-1.308601-.090285-1.310091.18167-1.308638-.070594-1.310167-.291757-1.309434.014146-1.309938.142947-1.307046-.152084-1.307079.043097-1.311403.253083-1.309239.079511-1.310996-.007207-1.312475-.112481-1.310605-.222947-1.313673.05271-1.31579.151241-1.31579-.105343-.687237-.24115-.52505-.519048-.183796-.611726-.027015-.550519.162668-.322421.322104-.423647.268926-.219988.6694-.044147,1.303311.360763,1.302271-.050683,1.301682-.278943,1.301569-.007207,1.301957.21078,1.302877-.061835,1.304358-.103869,1.306436-.024871,1.30884.194069,1.306646.038589,1.305182-.234112,1.304496.232487,1.304646-.015673,1.305693-.195816,1.307706-.066612,1.3091.105579,1.307109.088087,1.306367.13734,1.306986-.067589,1.309097-.062116,1.308851.100388,1.3077-.217963,1.308601-.103747,1.310091.162455,1.308638.121875,1.310167-.206077,1.309434-.040446,1.309938.235211,1.307046-.116158,1.307079-.073342,1.311403-.055471,1.309239.167195,1.310996.134201,1.312475-.30666,1.310605.282571,1.313673-.1981,1.31579.029904,1.31579-.191301,1.205976-.690347.906776-.851122.776836-1.262118.126651-1.31179.049656-1.313323.150594-1.312589-.186202-1.313094-.129143-1.310195.016992-1.310228.156054-1.314563-.001258-1.312393-.137523-1.314154-.000525-1.315637-.053089-1.313762.286419-1.316837.046774-1.31896-.16452-1.31896.1149-1.162343-.522273-1.021899-.45934-.619322-.971849-.334182-1.211904.181573-1.303311-.172594-1.302271.046016-1.301682.011984-1.301569.244617-1.301957-.196744-1.302877-.008087-1.304358.163652-1.306436-.338739-1.30884.092387-1.306646.247464-1.305182-.124208-1.304496-.095734-1.304646.103075-1.305693.098861-1.307706-.031333-1.3091-.045369-1.307109-.225146-1.306367.1616-1.306986.154442-1.309097-.089467-1.308851-.218916-1.3077.355902-1.308601-.395871-1.310091.246425-1.308638-.078925-1.310167-.138464-1.309434.332215-1.309938-.025604-1.307046-.045589-1.307079-.097236-1.311403.039456-1.309239.162516-1.310996-.074405-1.312475-.193239-1.310605-.118137-1.313673.050976-1.31579.229152-1.31579-.116531-.69628-.442765-.301684-.354819-.408334-.598053-.127363-.599967.114654-.535587.201004-.052639.602418-.229866.615586-.007048,1.303311-.034106,1.302271-.114546,1.301682.175905,1.301569.16237,1.301957-.221371,1.302877-.019814,1.304358.054689,1.306436-.041069,1.30884.173449,1.306646-.31322,1.305182.363744,1.304496-.128691,1.304646-.130499,1.305693.151718,1.307706-.131452,1.3091-.131867,1.307109.353238,1.306367.02619,1.306986-.006132,1.309097-.287861,1.308851.185946,1.3077-.074723,1.308601-.169736,1.310091.346862,1.308638-.247024,1.310167.229275,1.309434-.043891,1.309938-.098592,1.307046-.206969,1.307079.182904,1.311403.014561,1.309239-.125613,1.310996.261939,1.312475-.156628,1.310605.202755,1.313673-.168539,1.31579.081527,1.31579-.211985,1.257447-.635976,1.025131-1.083976.448841-1.198113.146612-1.348488.182562-1.350064.017432-1.349309-.234625-1.349828.183332-1.346848-.189256-1.346882.330163-1.351338-.165008-1.349108-.133517-1.350918.06831-1.352442.085387-1.350515-.069959-1.353676.192591-1.355858.012106-1.355858-.102281-1.253325-.187515-.839875-.774063-.757409-.862772-.191185-1.230916.190514-1.309547-.183698-1.310578.154478-1.309875-.299099-1.309172.154735-1.308763-.176332-1.30866.021817-1.308876.265421-1.309426-.039872-1.310325-.230044-1.310482.277038-1.309677-.107778-1.306587.104175-1.305544-.045772-1.304953-.086633-1.30484.092619-1.30523-.101695-1.306151.177578-1.307637-.293846-1.309719.135166-1.312129-.072475-1.30993-.033788-1.308462.002138-1.307775.1471-1.307925-.214848-1.308975.110881-1.310993-.087146-1.31239.354008-1.310394-.061823-1.30965-.230899-1.310271-.036525-1.312388.309849-1.31214-.231559-1.310986.187363-1.31189-.158449-1.313384-.031003-1.311927.244923-1.31346-.316958-1.312725.101414-1.31323.048484-1.310331.069653-1.310364-.250395-1.314699.269403-1.312529-.071009-1.314291.157691-1.315773-.280458-1.313899.204257-1.316974-.250518-1.319097.089504-1.319097.089517-1.29702.916613-.761547.796941-.837589,1.261138-.054109,1.329991-.137071,1.330503.201215,1.327566-.151315,1.327599.115535,1.331991.022855,1.329793.021964,1.331577-.098873,1.333079-.109708,1.33118.151706,1.334296-.181585,1.336447.162211,1.336447.027351,1.79889.297725.927571,1.635344-.035291.539435.141804.676286.623735.110063.559408.034796.408121-.472248,1.341837-.895991,1.350856-.823418,1.316873-.981663,1.578561-.437444,1.123606-.256655,1.092433-.389415,1.132588-.254313,1.266427.040753,1.241432-.256995,1.260055.089836,1.173165-.22298,1.164785.208478,1.140222.294272,1.146052.145745,1.283657.030426,1.226979.313367,1.143854.556932,1.495552.505301,1.512376.572907.863236,1.149607,1.135429.820237.305169.221655.228513.369795.364477-.098172.209576-.342841,1.272706-1.015657,1.347798-.894064.851319-.75464,1.117608-.248966,1.00927-.462178,1.12804-.447949,1.20204-.198385,1.21092-.098331,1.295568-.522426,1.367458.0738,1.355012-.191,1.29317.09311,1.290203.044205,1.285144.151475,1.260039.266195,1.292066.099484Z" fill="#885263"/>
    </g>
  </g>
</svg>